<?xml version="1.0" encoding="UTF-8"?>
<svg version="1.1" xmlns="http://www.w3.org/2000/svg" width="1024" height="1024">
<path d="M0 0 C1.85375977 0.25732422 1.85375977 0.25732422 4 1 C5.25756836 2.67626953 5.25756836 2.67626953 6.33984375 4.8828125 C6.7560498 5.70821533 7.17225586 6.53361816 7.60107422 7.3840332 C8.04209473 8.28855225 8.48311523 9.19307129 8.9375 10.125 C9.91453723 12.06032995 10.89513562 13.99386533 11.87890625 15.92578125 C12.38953613 16.9307666 12.90016602 17.93575195 13.42626953 18.97119141 C15.94809062 23.82469939 18.6574142 28.56665126 21.375 33.3125 C25.85052216 41.15644497 30.22215972 49.04650524 34.5 57 C38.80010613 64.99416138 43.19423119 72.92531592 47.6875 80.8125 C52.07874549 88.52476772 56.31430205 96.29657757 60.4140625 104.16723633 C64.31456098 111.64345388 68.40646413 119.00484667 72.52636719 126.36181641 C74.19316092 129.34580798 75.85104872 132.33464689 77.5078125 135.32421875 C83.04442984 145.31299845 88.58679366 155.29704389 94.22875977 165.22680664 C98.66531347 173.03732556 103.08900015 180.85563548 107.375 188.75 C107.95677002 189.79631592 107.95677002 189.79631592 108.55029297 190.86376953 C109.44605535 192.53577484 110.2339434 194.26473366 111 196 C110.67 196.99 110.34 197.98 110 199 C38.39 199 -33.22 199 -107 199 C-107.33 198.34 -107.66 197.68 -108 197 C-107.03466797 194.7512207 -107.03466797 194.7512207 -105.4921875 191.92578125 C-104.6405603 190.35401123 -104.6405603 190.35401123 -103.77172852 188.75048828 C-103.14580811 187.61595215 -102.5198877 186.48141602 -101.875 185.3125 C-101.22856691 184.12772409 -100.58265844 182.9426618 -99.93725586 181.75732422 C-95.3722359 173.39642896 -90.68706439 165.10423228 -85.96826172 156.8293457 C-81.3478675 148.69597625 -76.93431033 140.45715564 -72.54226685 132.19927979 C-67.80242091 123.29328947 -62.91675887 114.48353586 -57.9140625 105.72265625 C-53.64591811 98.21696819 -49.55410732 90.62263095 -45.5 83 C-40.94463253 74.43488757 -36.31080177 65.9250157 -31.5 57.5 C-25.95977755 47.79583235 -20.6609864 37.97339048 -15.40795898 28.11230469 C-10.37980282 18.67997711 -5.23788046 9.31726501 0 0 Z " fill="#FDFDFD" transform="translate(510,320)"/>
<path d="M0 0 C0.66 0 1.32 0 2 0 C2 10.23 2 20.46 2 31 C134.33 31 266.66 31 403 31 C403 21.1 403 11.2 403 1 C403.99 1 404.98 1 406 1 C406.28085449 1.5168335 406.56170898 2.03366699 406.85107422 2.56616211 C411.70552928 11.48437702 416.57166766 20.38976724 421.75 29.125 C422.13841064 29.78137451 422.52682129 30.43774902 422.92700195 31.11401367 C423.78123904 32.55746091 424.63548776 34.00090127 425.48974609 35.44433594 C428.34971805 40.28400397 431.20133197 45.12820811 434.03161621 49.98529053 C435.04492843 51.71992026 436.06585753 53.45009326 437.08691406 55.18017578 C437.70920898 56.24993652 438.33150391 57.31969727 438.97265625 58.421875 C439.53218994 59.37674805 440.09172363 60.33162109 440.66821289 61.31542969 C442 64 442 64 443 69 C284.6 69 126.2 69 -37 69 C-37.33 68.34 -37.66 67.68 -38 67 C-36.6833665 64.32048124 -35.30260826 61.76942487 -33.8125 59.1875 C-33.35979736 58.38852295 -32.90709473 57.5895459 -32.44067383 56.76635742 C-30.96848269 54.17290298 -29.48484584 51.58622665 -28 49 C-27.03856891 47.31538577 -26.07762848 45.63049141 -25.1171875 43.9453125 C-23.13945235 40.47814322 -21.15684238 37.01381427 -19.171875 33.55078125 C-15.1748324 26.56852602 -11.22411428 19.56012642 -7.27612305 12.55004883 C-6.76090088 11.63634521 -6.24567871 10.7226416 -5.71484375 9.78125 C-5.26230225 8.97751953 -4.80976074 8.17378906 -4.34350586 7.34570312 C-3.90014893 6.57162109 -3.45679199 5.79753906 -3 5 C-2.23538452 3.61458008 -2.23538452 3.61458008 -1.45532227 2.20117188 C-0.73493774 1.1115918 -0.73493774 1.1115918 0 0 Z " fill="#FEFEFE" transform="translate(309,601)"/>
<path d="M0 0 C0.99 0 1.98 0 3 0 C3 6.93 3 13.86 3 21 C98.7 21 194.4 21 293 21 C293 14.07 293 7.14 293 0 C293.99 0 294.98 0 296 0 C296.48073975 0.85658203 296.48073975 0.85658203 296.97119141 1.73046875 C298.52044944 4.48811517 300.07246591 7.24419662 301.625 10 C302.19879395 11.01989014 302.77258789 12.03978027 303.36376953 13.09057617 C306.52730937 18.69362127 309.73292142 24.26660241 313.015625 29.80078125 C313.66063965 30.89068359 314.3056543 31.98058594 314.97021484 33.10351562 C316.22934454 35.22476668 317.49519137 37.34204647 318.76806641 39.45507812 C319.62150635 40.89463867 319.62150635 40.89463867 320.4921875 42.36328125 C321.00120605 43.21188721 321.51022461 44.06049316 322.03466797 44.93481445 C322.35322754 45.61632568 322.67178711 46.29783691 323 47 C322.67 47.66 322.34 48.32 322 49 C207.16 49 92.32 49 -26 49 C-25.18686343 44.93431716 -24.70531138 43.08726171 -22.734375 39.7265625 C-22.26225586 38.9121167 -21.79013672 38.0976709 -21.30371094 37.25854492 C-20.79098633 36.3894751 -20.27826172 35.52040527 -19.75 34.625 C-18.66597056 32.75951892 -17.582665 30.89361704 -16.5 29.02734375 C-15.93152344 28.0513623 -15.36304688 27.07538086 -14.77734375 26.06982422 C-11.7260366 20.79961322 -8.74000915 15.4926495 -5.75 10.1875 C-4.64068052 8.2226249 -3.5313105 6.25777834 -2.421875 4.29296875 C-1.6145097 2.86202071 -0.8071875 1.43104834 0 0 Z " fill="#FEFEFE" transform="translate(364,542)"/>
<path d="M0 0 C0.99 0 1.98 0 3 0 C3 6.93 3 13.86 3 21 C98.7 21 194.4 21 293 21 C293 14.07 293 7.14 293 0 C293.99 0 294.98 0 296 0 C296.48073975 0.85658203 296.48073975 0.85658203 296.97119141 1.73046875 C298.52044944 4.48811517 300.07246591 7.24419662 301.625 10 C302.19879395 11.01989014 302.77258789 12.03978027 303.36376953 13.09057617 C306.52730937 18.69362127 309.73292142 24.26660241 313.015625 29.80078125 C313.66063965 30.89068359 314.3056543 31.98058594 314.97021484 33.10351562 C316.22934454 35.22476668 317.49519137 37.34204647 318.76806641 39.45507812 C319.62150635 40.89463867 319.62150635 40.89463867 320.4921875 42.36328125 C321.00120605 43.21188721 321.51022461 44.06049316 322.03466797 44.93481445 C322.35322754 45.61632568 322.67178711 46.29783691 323 47 C322.67 47.66 322.34 48.32 322 49 C207.49 49 92.98 49 -25 49 C-25 48.67 -25 48.34 -25 48 C89.18 48 203.36 48 321 48 C314.0391236 33.10944303 314.0391236 33.10944303 308 29 C307.35728355 26.97036911 306.72150023 24.93822238 306.125 22.89453125 C303.64526264 16.51437368 299.63133031 10.77815451 296 5 C295.93941406 6.21558594 295.87882812 7.43117188 295.81640625 8.68359375 C295.73201668 10.26824228 295.6473679 11.85287702 295.5625 13.4375 C295.50352539 14.64116211 295.50352539 14.64116211 295.44335938 15.86914062 C295.11328125 21.88671875 295.11328125 21.88671875 294 23 C292.44233119 23.09785324 290.88021261 23.12555518 289.31947327 23.12584114 C288.30094741 23.12844889 287.28242155 23.13105664 286.23303127 23.13374341 C285.10046933 23.13151268 283.96790739 23.12928196 282.80102539 23.12698364 C281.60847924 23.12854363 280.41593309 23.13010362 279.18724918 23.13171089 C275.86215983 23.13502419 272.53712645 23.13381169 269.21204042 23.13072467 C265.63190798 23.12847244 262.05178062 23.13194929 258.47164917 23.13470459 C251.45226733 23.13916319 244.43289616 23.13818542 237.4135139 23.13529195 C231.71131347 23.13303827 226.00911603 23.13272524 220.30691528 23.13381577 C219.09194338 23.13404561 219.09194338 23.13404561 217.85242659 23.13428011 C216.20722985 23.13459982 214.56203312 23.13492403 212.91683638 23.1352527 C197.47118875 23.13810776 182.02554704 23.13482007 166.57990038 23.12945233 C153.31205302 23.12498427 140.0442144 23.1257602 126.77636719 23.13037109 C111.38792368 23.13571641 95.99948537 23.13783306 80.61104107 23.13475883 C78.97172229 23.13444026 77.3324035 23.13412589 75.69308472 23.13381577 C74.88640022 23.13366149 74.07971572 23.13350721 73.24858624 23.13334826 C67.54984765 23.13248298 61.85111235 23.13394623 56.15237427 23.13629532 C49.21238169 23.13909304 42.27240042 23.13835565 35.33240914 23.13301457 C31.7880556 23.13037718 28.24372095 23.12937313 24.69936752 23.13266373 C20.86589241 23.13616905 17.0324486 23.13199828 13.19897461 23.12698364 C11.5001317 23.13032973 11.5001317 23.13032973 9.76696873 23.13374341 C8.23917994 23.12983178 8.23917994 23.12983178 6.68052673 23.12584114 C5.79442183 23.12567879 4.90831694 23.12551644 3.99536037 23.12534916 C2 23 2 23 1 22 C0.76298761 19.14122091 0.57780818 16.30116703 0.4375 13.4375 C0.39431641 12.63119141 0.35113281 11.82488281 0.30664062 10.99414062 C0.20024738 8.99631195 0.09959112 6.9981793 0 5 C-1.98 7.97 -1.98 7.97 -4 11 C-4.33 10.34 -4.66 9.68 -5 9 C-4.00390625 6.8359375 -4.00390625 6.8359375 -2.5625 4.375 C-2.08941406 3.55773437 -1.61632812 2.74046875 -1.12890625 1.8984375 C-0.75636719 1.27195312 -0.38382812 0.64546875 0 0 Z " fill="#ECECEC" transform="translate(364,542)"/>
<path d="M0 0 C0.66 0 1.32 0 2 0 C2 10.23 2 20.46 2 31 C134.33 31 266.66 31 403 31 C403 21.1 403 11.2 403 1 C403.99 1 404.98 1 406 1 C407.19733988 3.11997834 408.38298713 5.24513676 409.5625 7.375 C409.90474609 7.97828125 410.24699219 8.5815625 410.59960938 9.203125 C411.46127095 10.76978241 412.23718183 12.38290862 413 14 C412.67 14.66 412.34 15.32 412 16 C410.02 12.7 408.04 9.4 406 6 C405.93941406 7.86527344 405.87882812 9.73054687 405.81640625 11.65234375 C405.7320219 14.0807379 405.64737286 16.50912287 405.5625 18.9375 C405.50352539 20.78504883 405.50352539 20.78504883 405.44335938 22.66992188 C405.40146484 23.83974609 405.35957031 25.00957031 405.31640625 26.21484375 C405.27974854 27.29886475 405.24309082 28.38288574 405.20532227 29.49975586 C405 32 405 32 404 33 C401.86290345 33.09800592 399.72249433 33.1237116 397.58315182 33.12304783 C396.90158338 33.12420167 396.22001494 33.12535552 395.51779291 33.12654433 C393.20527383 33.12921758 390.89282264 33.12468306 388.58030701 33.12025452 C386.91714924 33.12069007 385.25399153 33.12156469 383.5908342 33.12284368 C378.99825063 33.12509168 374.40569014 33.12106322 369.81310952 33.11606562 C364.86897729 33.11176565 359.92484646 33.11320722 354.98071289 33.1139679 C346.40724311 33.11449342 337.83378091 33.11134366 329.26031303 33.10573006 C316.86436538 33.0976189 304.46842141 33.09500023 292.07247139 33.09374207 C271.9631071 33.09155094 251.85374686 33.08488922 231.74438477 33.07543945 C212.20467143 33.0662669 192.66495919 33.0591853 173.12524414 33.05493164 C171.92174765 33.05466892 170.71825115 33.05440619 169.47828507 33.05413551 C163.44097499 33.05283052 157.40366491 33.0515668 151.36635482 33.05032361 C101.24423373 33.03994911 51.12211712 33.02225506 1 33 C0.67 23.43 0.34 13.86 0 4 C-2.97 9.28 -5.94 14.56 -9 20 C-9.33 19.34 -9.66 18.68 -10 18 C-9.19555664 16.12060547 -9.19555664 16.12060547 -7.91015625 13.8671875 C-7.45576172 13.06152344 -7.00136719 12.25585938 -6.53320312 11.42578125 C-6.04787109 10.58402344 -5.56253906 9.74226562 -5.0625 8.875 C-4.58103516 8.02550781 -4.09957031 7.17601562 -3.60351562 6.30078125 C-2.40942817 4.19634989 -1.20803163 2.09644809 0 0 Z " fill="#F3F3F3" transform="translate(309,601)"/>
<path d="M0 0 C4.3949379 3.95634926 6.82419377 9.40623095 9.6875 14.5 C10.59725586 16.08748047 10.59725586 16.08748047 11.52539062 17.70703125 C12.38487305 19.22876953 12.38487305 19.22876953 13.26171875 20.78125 C13.78725342 21.71001953 14.31278809 22.63878906 14.85424805 23.59570312 C16 26 16 26 16 29 C-142.4 29 -300.8 29 -464 29 C-464.33 28.34 -464.66 27.68 -465 27 C-463.78515625 24.3984375 -463.78515625 24.3984375 -462.0625 21.375 C-461.21365234 19.87066406 -461.21365234 19.87066406 -460.34765625 18.3359375 C-459.90292969 17.56507813 -459.45820313 16.79421875 -459 16 C-458.34 16.33 -457.68 16.66 -457 17 C-458.65 20.3 -460.3 23.6 -462 27 C-305.25 27 -148.5 27 13 27 C11.20804606 21.61105436 11.20804606 21.61105436 8.65234375 16.8359375 C8.21212891 16.10632813 7.77191406 15.37671875 7.31835938 14.625 C6.63483398 13.51125 6.63483398 13.51125 5.9375 12.375 C5.02523363 10.88568996 4.11750243 9.39359021 3.21484375 7.8984375 C2.81386475 7.24536621 2.41288574 6.59229492 1.99975586 5.91943359 C0.97653445 3.95494843 0.44522147 2.16267607 0 0 Z " fill="#F1F1F1" transform="translate(736,641)"/>
<path d="M0 0 C0.99 0 1.98 0 3 0 C4.19733988 2.11997834 5.38298713 4.24513676 6.5625 6.375 C6.90474609 6.97828125 7.24699219 7.5815625 7.59960938 8.203125 C8.46127095 9.76978241 9.23718183 11.38290862 10 13 C9.67 13.66 9.34 14.32 9 15 C7.02 11.7 5.04 8.4 3 5 C2.67 12.92 2.34 20.84 2 29 C1.34 29.33 0.68 29.66 0 30 C0 20.1 0 10.2 0 0 Z " fill="#F1F1F1" transform="translate(712,602)"/>
<path d="M0 0 C0.99 0 1.98 0 3 0 C3 6.93 3 13.86 3 21 C2.34 21 1.68 21 1 21 C0.67 15.72 0.34 10.44 0 5 C-1.32 6.98 -2.64 8.96 -4 11 C-4.33 10.34 -4.66 9.68 -5 9 C-4.00390625 6.8359375 -4.00390625 6.8359375 -2.5625 4.375 C-2.08941406 3.55773437 -1.61632812 2.74046875 -1.12890625 1.8984375 C-0.75636719 1.27195312 -0.38382812 0.64546875 0 0 Z " fill="#F2F2F1" transform="translate(364,542)"/>
<path d="M0 0 C0.66 0 1.32 0 2 0 C0.68332049 2.67499315 -0.69845762 5.29441063 -2.1640625 7.890625 C-2.56367188 8.59960938 -2.96328125 9.30859375 -3.375 10.0390625 C-3.7875 10.76867187 -4.2 11.49828125 -4.625 12.25 C-5.04523438 12.99507812 -5.46546875 13.74015625 -5.8984375 14.5078125 C-6.93143065 16.33902763 -7.96559955 18.16957944 -9 20 C-9.33 19.34 -9.66 18.68 -10 18 C-9.19555664 16.12060547 -9.19555664 16.12060547 -7.91015625 13.8671875 C-7.45576172 13.06152344 -7.00136719 12.25585938 -6.53320312 11.42578125 C-6.04787109 10.58402344 -5.56253906 9.74226562 -5.0625 8.875 C-4.58103516 8.02550781 -4.09957031 7.17601562 -3.60351562 6.30078125 C-2.40942817 4.19634989 -1.20803163 2.09644809 0 0 Z " fill="#EAEAEA" transform="translate(309,601)"/>
</svg>
